# xmcd
# 
# Track frame offsets:
#     150
#     14010
#     24360
#     49035
#     68822
#     82510
#     99955
#     125385
#     151725
#     164935
#     180900
# 
# Disc length: 2658
# 
# Revision: 11
# Processed by: cddbd v1.5.2PL0 Copyright (c) Steve Scherf et al.
# Submitted via: fre:ac v1.0.27
# 
DISCID=780a600b
DTITLE=Lyle Lovett - Step Inside This House (1)
DYEAR=1998
DGENRE=Jazz-influenced Rock
TTITLE0=Bears
TTITLE1=Lungs
TTITLE2=Step Inside This House
TTITLE3=Memphis Midnight/Memphis Morning
TTITLE4=I've Had Enough
TTITLE5=Teach Me About Love
TTITLE6=Sleepwalking
TTITLE7=Ballad of the Snow Leopard and the Tanqueray Cowboy
TTITLE8=More Pretty Girls Than One
TTITLE9=West Texas Highway
TTITLE10=Rollin' By
EXTD=
EXTT0=
EXTT1=
EXTT2=
EXTT3=
EXTT4=
EXTT5=
EXTT6=
EXTT7=
EXTT8=
EXTT9=
EXTT10=
PLAYORDER=
